<?xml version="1.0" standalone="no"?>
<!DOCTYPE svg PUBLIC "-//W3C//DTD SVG 20010904//EN"
 "http://www.w3.org/TR/2001/REC-SVG-20010904/DTD/svg10.dtd">
<svg version="1.0" xmlns="http://www.w3.org/2000/svg"
 width="900.000000pt" height="470.000000pt" viewBox="0 0 900.000000 470.000000"
 preserveAspectRatio="xMidYMid meet">
<metadata>
Created by potrace 1.16, written by Peter Selinger 2001-2019
</metadata>
<g transform="translate(0.000000,470.000000) scale(0.100000,-0.100000)"
fill="#000000" stroke="none">
<path d="M2377 4463 c1179 -2 3107 -2 4285 0 1179 1 215 2 -2142 2 -2357 0
-3321 -1 -2143 -2z"/>
<path d="M230 2886 c0 -1049 3 -1567 10 -1571 6 -4 7 -11 4 -17 -4 -7 -2 -8 5
-4 16 10 83 -13 75 -26 -4 -7 -2 -8 5 -4 16 10 83 -13 75 -26 -4 -7 -2 -8 5
-4 16 10 83 -13 75 -26 -5 -7 -2 -8 5 -4 18 12 196 -55 179 -66 -9 -7 -8 -8 6
-4 27 9 93 -13 75 -25 -10 -7 -6 -8 11 -5 14 3 39 -1 55 -9 26 -13 27 -14 5
-9 -21 4 -22 3 -7 -6 9 -6 22 -8 27 -5 14 9 81 -15 75 -26 -4 -5 1 -6 10 -3
20 8 77 -15 68 -29 -4 -6 -1 -7 6 -3 18 11 63 -2 55 -16 -4 -7 -3 -8 5 -4 16
10 83 -13 75 -26 -4 -7 -2 -8 5 -4 16 10 83 -13 75 -26 -4 -7 -2 -8 5 -4 16
10 83 -13 75 -26 -5 -7 -2 -8 5 -4 18 12 196 -55 179 -66 -9 -7 -8 -8 6 -4 27
9 93 -13 75 -25 -10 -7 -6 -8 11 -5 14 3 39 -1 55 -9 26 -13 27 -14 5 -9 -19
4 -21 3 -10 -5 8 -6 24 -8 35 -6 11 3 34 -2 50 -10 26 -13 27 -14 5 -9 -19 4
-21 3 -10 -5 8 -6 24 -8 35 -6 11 3 34 -2 50 -10 26 -13 27 -14 5 -9 -19 4
-22 3 -10 -5 8 -6 23 -8 33 -5 24 7 79 -15 70 -29 -4 -6 -1 -7 6 -3 18 11 63
-2 55 -16 -4 -7 -3 -8 5 -4 16 10 83 -13 75 -26 -4 -7 -2 -8 5 -4 16 10 83
-13 75 -26 -4 -7 -2 -8 5 -4 16 10 83 -13 75 -26 -4 -7 -2 -8 5 -4 16 10 83
-13 75 -26 -4 -7 -2 -8 5 -4 6 4 34 0 62 -9 38 -13 48 -20 38 -27 -10 -7 -9
-8 5 -4 27 9 93 -13 75 -25 -10 -7 -6 -8 11 -5 14 3 39 -1 55 -9 26 -13 27
-14 5 -9 -19 4 -21 3 -10 -5 8 -6 24 -8 35 -6 11 3 34 -2 50 -10 26 -13 27
-14 5 -9 -19 4 -21 3 -10 -5 8 -6 24 -8 35 -6 11 3 34 -2 50 -10 26 -13 27
-14 5 -9 -21 4 -22 3 -7 -6 9 -6 21 -8 27 -5 13 8 61 -5 54 -16 -3 -5 3 -6 12
-2 13 5 15 3 9 -7 -5 -9 -4 -11 4 -6 16 10 63 -2 56 -14 -4 -6 1 -7 11 -3 13
5 15 3 9 -7 -5 -9 -4 -11 4 -6 18 11 63 -2 55 -16 -4 -7 -3 -8 5 -4 16 10 83
-13 75 -26 -4 -7 -2 -8 5 -4 16 10 83 -13 75 -26 -4 -7 -2 -8 5 -4 13 8 83
-12 77 -22 -8 -13 59 -11 138 4 43 9 95 13 115 10 26 -4 30 -3 16 4 -11 5 -15
9 -8 9 6 1 74 13 150 27 76 14 154 23 173 20 23 -4 28 -3 15 3 -15 6 -3 11 50
20 39 7 105 19 149 28 43 8 95 12 115 9 23 -4 29 -3 16 3 -15 6 -3 11 50 20
39 7 103 19 144 28 41 8 93 13 115 9 25 -3 33 -2 21 3 -15 6 -2 11 50 20 39 7
102 18 140 26 39 7 113 21 165 30 52 9 127 22 165 30 39 7 113 21 165 30 52 9
127 22 165 30 39 7 113 21 165 30 52 9 127 23 165 30 39 8 113 21 165 30 52 9
127 23 165 30 39 8 113 21 165 30 52 9 127 23 165 30 203 39 251 46 284 41 24
-4 29 -3 16 3 -15 6 -3 11 50 20 39 7 140 25 225 41 85 16 234 43 330 60 96
17 245 44 330 60 85 16 234 43 330 60 415 75 499 91 575 105 44 8 121 22 170
31 50 8 123 22 163 30 l72 15 0 1610 0 1609 -4285 0 -4285 0 0 -1564z m8440
-46 c0 -1403 -1 -1480 -17 -1481 -15 0 -15 -2 2 -8 16 -7 11 -10 -25 -15 -60
-10 -199 -34 -285 -51 -38 -7 -113 -21 -165 -30 -52 -9 -126 -22 -165 -30 -38
-7 -113 -21 -165 -30 -94 -16 -166 -30 -329 -61 -46 -9 -100 -13 -120 -10 -23
4 -29 3 -16 -3 15 -6 3 -11 -50 -20 -39 -7 -105 -19 -149 -28 -43 -8 -95 -12
-115 -9 -23 4 -29 3 -16 -3 15 -6 3 -11 -50 -20 -39 -7 -140 -25 -225 -41 -85
-16 -234 -43 -330 -60 -96 -17 -245 -44 -330 -60 -85 -16 -234 -42 -330 -60
-96 -17 -209 -38 -250 -46 -41 -8 -136 -25 -210 -39 -74 -13 -148 -27 -165
-30 -80 -15 -319 -58 -394 -71 -47 -8 -91 -12 -98 -9 -8 2 -12 1 -9 -4 3 -5
-11 -11 -32 -14 -20 -3 -91 -15 -156 -26 -66 -12 -126 -19 -133 -17 -8 3 -12
2 -9 -3 3 -5 -11 -11 -32 -14 -20 -3 -91 -15 -156 -26 -66 -12 -126 -19 -133
-17 -8 3 -12 2 -9 -3 3 -5 -11 -11 -32 -14 -20 -3 -91 -15 -156 -26 -66 -12
-126 -19 -133 -17 -8 3 -12 2 -9 -2 7 -11 -309 -66 -326 -56 -7 4 -10 3 -5 -2
5 -5 -19 -14 -55 -21 -53 -10 -71 -9 -111 3 -28 10 -45 20 -41 26 4 7 2 8 -5
4 -16 -10 -83 13 -75 26 4 7 2 8 -4 4 -16 -10 -63 4 -55 17 3 6 1 7 -6 3 -15
-10 -82 15 -74 27 3 6 1 7 -6 3 -14 -9 -82 14 -75 26 3 4 -1 6 -8 3 -7 -3 -35
3 -62 14 -27 10 -43 20 -35 23 8 3 0 5 -17 5 -39 0 -96 22 -88 34 3 5 -2 6
-10 3 -20 -8 -297 96 -289 109 3 6 1 7 -6 3 -16 -10 -83 13 -75 26 4 7 2 8 -5
4 -16 -10 -83 13 -75 26 5 7 2 8 -5 3 -18 -10 -276 86 -259 97 8 6 4 7 -12 4
-14 -3 -38 1 -55 9 -26 13 -27 14 -5 9 21 -4 22 -3 7 6 -9 6 -22 8 -27 5 -14
-9 -81 15 -75 26 4 5 -1 6 -10 3 -19 -8 -77 15 -69 27 3 5 -2 6 -11 3 -19 -8
-77 15 -69 27 3 5 -2 6 -10 3 -20 -8 -137 36 -129 49 3 6 1 7 -6 3 -16 -10
-83 13 -75 26 4 7 2 8 -5 4 -15 -10 -83 13 -76 25 4 5 0 6 -8 3 -7 -2 -70 16
-138 41 -117 44 -164 65 -109 51 21 -6 22 -5 7 4 -9 6 -22 8 -27 5 -6 -4 -27
-1 -46 5 -27 9 -33 15 -23 21 10 7 6 8 -11 5 -14 -3 -38 1 -55 9 -26 13 -27
14 -5 9 19 -4 22 -3 10 5 -8 6 -23 8 -33 5 -22 -7 -79 15 -71 27 3 5 -2 6 -11
3 -20 -8 -77 15 -68 29 4 6 1 7 -6 3 -18 -11 -63 2 -55 16 4 7 3 8 -5 4 -16
-10 -83 13 -75 26 4 7 2 8 -5 4 -15 -10 -83 13 -76 25 4 5 0 6 -8 3 -8 -3 -31
2 -51 10 l-36 15 0 1455 0 1456 4150 0 4150 0 0 -1480z"/>
<path d="M2518 4183 c1101 -2 2903 -2 4005 0 1101 1 200 2 -2003 2 -2203 0
-3104 -1 -2002 -2z"/>
<path d="M510 2837 l0 -1334 40 -12 c25 -7 38 -16 34 -23 -4 -7 -3 -8 5 -4 15
10 83 -13 76 -25 -4 -5 1 -6 9 -3 20 8 217 -66 209 -79 -3 -6 -1 -7 6 -3 16
10 83 -13 75 -26 -4 -7 -2 -8 5 -4 16 10 83 -13 75 -26 -5 -7 -2 -8 5 -4 18
11 196 -55 179 -66 -8 -6 -4 -7 12 -4 14 3 39 -1 55 -9 26 -13 27 -14 5 -9
-19 4 -21 3 -10 -5 8 -6 24 -8 35 -6 11 3 34 -2 50 -10 26 -13 27 -14 5 -9
-19 4 -21 3 -10 -5 8 -6 24 -8 35 -6 11 3 34 -2 50 -10 26 -13 27 -14 5 -9
-21 4 -22 3 -7 -6 9 -6 22 -8 27 -5 14 9 81 -15 75 -26 -4 -5 1 -6 10 -3 20 8
77 -15 68 -29 -4 -6 -1 -7 6 -3 18 11 63 -2 55 -16 -4 -7 -3 -8 5 -4 16 10 83
-13 75 -26 -4 -7 -2 -8 5 -4 16 10 83 -13 75 -26 -4 -7 -2 -8 5 -4 16 10 83
-13 75 -26 -5 -7 -2 -8 5 -4 18 12 196 -55 179 -66 -9 -7 -8 -8 6 -4 10 4 35
1 54 -5 26 -9 31 -14 21 -21 -11 -7 -9 -8 5 -4 27 9 93 -13 75 -25 -10 -7 -6
-8 11 -5 14 3 39 -1 55 -9 26 -13 27 -14 5 -9 -21 4 -22 3 -7 -6 9 -6 22 -8
27 -5 16 10 81 -15 74 -27 -4 -7 -2 -8 4 -4 15 9 63 -4 56 -15 -3 -5 3 -6 12
-2 13 5 15 3 9 -7 -5 -8 -4 -11 3 -6 16 10 63 -4 55 -17 -3 -6 -1 -7 6 -3 16
10 83 -13 75 -26 -4 -7 -2 -8 5 -4 16 10 83 -13 75 -26 -4 -7 -2 -8 5 -4 16
10 83 -13 75 -26 -5 -7 -2 -8 5 -4 18 12 196 -55 179 -66 -9 -7 -8 -8 6 -4 10
4 35 1 54 -5 26 -9 31 -14 21 -21 -11 -7 -9 -8 5 -4 23 8 93 -13 78 -23 -24
-14 80 -9 183 10 60 11 125 18 145 15 27 -4 31 -3 15 4 -16 8 -11 9 20 5 25
-3 35 -1 26 4 -9 6 0 11 30 15 24 4 79 14 123 22 43 9 95 13 115 10 24 -4 29
-3 16 3 -16 7 -12 10 25 16 25 4 128 22 230 41 102 19 262 48 355 65 94 17
240 43 325 59 85 16 234 43 330 60 415 75 499 91 575 105 44 8 121 22 170 31
50 8 122 21 160 29 39 7 113 21 165 30 52 9 127 23 165 30 39 8 113 21 165 30
52 9 127 23 165 30 39 8 111 21 160 29 50 9 126 23 170 31 76 14 160 30 575
105 96 17 245 44 330 60 85 16 234 42 330 60 96 17 200 36 230 43 l55 12 3
1353 2 1352 -4010 0 -4010 0 0 -1333z m5332 818 c49 -35 89 -90 115 -155 14
-38 17 -89 21 -317 l3 -273 -75 0 -76 0 0 248 c0 229 -2 249 -20 280 -41 66
-123 68 -167 3 l-23 -34 0 -848 0 -847 26 -31 c48 -57 137 -33 170 45 11 25
14 93 14 283 l0 249 73 9 72 8 3 -248 c3 -318 -12 -387 -111 -494 -137 -148
-323 -114 -398 73 l-24 59 0 875 c0 824 1 878 18 930 28 84 83 157 141 191 46
27 58 30 123 27 61 -3 78 -8 115 -33z m-4372 -582 c5 -576 6 -593 25 -612 32
-31 61 -35 84 -12 21 21 21 29 21 621 l0 600 208 -2 207 -3 0 -685 c0 -683 0
-685 -23 -757 -28 -90 -73 -149 -137 -182 -179 -93 -563 67 -720 299 -94 139
-90 104 -93 758 l-3 572 213 -2 213 -3 5 -592z m1098 322 c46 -148 105 -344
132 -435 l49 -165 0 438 1 437 190 0 190 0 0 -1061 c0 -845 -3 -1060 -12
-1056 -7 3 -87 31 -178 61 l-165 56 -135 471 c-74 259 -138 473 -142 475 -4 3
-8 -187 -8 -421 0 -338 -3 -426 -12 -423 -7 3 -91 31 -185 62 l-173 58 0 889
0 889 182 -2 182 -3 84 -270z m1006 253 c3 -13 17 -178 31 -368 14 -190 41
-543 60 -785 19 -242 40 -513 47 -603 6 -89 13 -160 15 -158 5 4 30 327 103
1281 22 292 43 558 46 593 l6 62 119 0 119 0 0 -1249 0 -1248 -69 -12 c-39 -6
-75 -11 -80 -11 -8 0 -11 263 -11 862 0 474 -2 859 -6 856 -3 -3 -18 -158 -34
-344 -16 -187 -36 -415 -45 -509 -8 -93 -26 -305 -40 -470 -14 -165 -29 -329
-33 -365 l-7 -65 -73 -14 c-40 -7 -75 -12 -77 -9 -2 2 -38 384 -80 848 -41
465 -79 868 -84 895 -5 30 -9 -319 -10 -866 l-1 -916 -42 -7 c-24 -4 -58 -9
-75 -12 l-33 -6 0 1321 0 1321 125 0 c121 0 125 -1 129 -22z m1050 -10 c3 -18
17 -175 31 -348 31 -382 152 -1829 161 -1921 l6 -65 -88 -16 c-49 -9 -90 -15
-92 -14 -1 2 -9 108 -17 236 -8 128 -16 234 -18 236 -2 2 -42 -2 -90 -8 -86
-11 -87 -12 -92 -42 -5 -33 -35 -417 -35 -452 0 -17 -10 -22 -76 -33 -42 -7
-78 -11 -80 -8 -3 3 0 58 5 123 104 1204 125 1443 151 1749 11 132 27 316 35
410 8 93 15 173 15 177 0 4 40 8 90 8 l89 0 5 -32z m716 -73 l0 -105 -80 0
-80 0 0 -1040 c0 -980 -1 -1040 -17 -1048 -15 -8 -134 -32 -156 -32 -4 0 -7
477 -7 1060 l0 1061 -87 -3 -88 -3 -3 108 -3 107 261 0 260 0 0 -105z m960
-380 l0 -486 63 6 c34 3 81 8 105 11 l42 5 0 475 0 474 85 0 85 0 0 -1010 0
-1010 -22 -5 c-80 -18 -115 -25 -130 -25 -17 0 -18 29 -18 461 l0 461 -47 -6
c-27 -3 -74 -8 -105 -12 l-58 -6 0 -469 0 -469 -22 -5 c-82 -18 -115 -25 -133
-25 -20 0 -20 6 -17 1060 l2 1060 85 0 85 0 0 -485z m1008 404 l3 -76 -32 -7
c-17 -3 -83 -6 -145 -6 l-114 0 0 -348 0 -348 78 8 c42 3 90 7 105 7 l28 1 -3
-82 -3 -83 -100 -12 c-55 -6 -101 -12 -102 -12 -2 -1 -3 -170 -3 -376 l0 -375
28 6 c112 21 248 41 255 37 4 -2 7 -37 7 -78 0 -41 -3 -76 -7 -78 -7 -5 -441
-87 -456 -87 -9 0 -9 1975 0 1984 4 3 108 5 232 4 l226 -3 3 -76z m550 53 c51
-27 94 -90 114 -165 10 -41 13 -193 13 -702 0 -643 0 -651 -22 -720 -27 -84
-75 -146 -142 -180 -39 -19 -331 -85 -379 -85 -9 0 -12 223 -12 933 0 514 3
937 7 941 4 4 91 6 193 4 170 -3 188 -5 228 -26z m-6564 -1586 c382 -140 807
-295 1246 -456 228 -84 454 -166 503 -183 l87 -32 0 -162 c0 -100 -4 -163 -10
-163 -5 0 -27 7 -47 15 -21 8 -211 78 -423 155 -767 282 -1367 502 -1480 544
l-115 43 -3 162 c-1 88 0 161 4 161 4 0 111 -38 238 -84z"/>
<path d="M4485 2475 l-40 -525 30 1 c16 0 50 4 75 7 l45 7 -3 50 c-1 28 -9
160 -17 295 -8 135 -20 337 -26 450 -6 113 -14 213 -17 223 -4 9 -25 -219 -47
-508z"/>
<path d="M7610 2746 l0 -753 70 12 c38 6 76 18 85 25 45 38 45 32 45 728 0
455 -3 669 -11 691 -15 42 -35 51 -118 51 l-71 0 0 -754z"/>
<path d="M495 2835 c0 -731 1 -1029 2 -662 2 368 2 966 0 1330 -1 364 -2 64
-2 -668z"/>
<path d="M8815 2840 c0 -883 1 -1244 2 -803 2 442 2 1164 0 1605 -1 442 -2 81
-2 -802z"/>
</g>
</svg>
