<?xml version="1.0" standalone="no"?>
<!DOCTYPE svg PUBLIC "-//W3C//DTD SVG 20010904//EN"
 "http://www.w3.org/TR/2001/REC-SVG-20010904/DTD/svg10.dtd">
<svg version="1.0" xmlns="http://www.w3.org/2000/svg"
 width="800.000000pt" height="568.000000pt" viewBox="0 0 800.000000 568.000000"
 preserveAspectRatio="xMidYMid meet">
<metadata>
Created by potrace 1.16, written by Peter Selinger 2001-2019
</metadata>
<g transform="translate(0.000000,568.000000) scale(0.100000,-0.100000)"
fill="#000000" stroke="none">
<path d="M117 4703 c-4 -3 -7 -615 -7 -1359 0 -1279 1 -1354 18 -1363 9 -5
181 -70 382 -144 201 -74 610 -226 910 -337 1149 -426 1352 -500 1371 -500 35
0 5084 921 5092 929 4 4 6 630 5 1392 l-3 1384 -3881 3 c-2134 1 -3884 -1
-3887 -5z m7623 -1402 l0 -1259 -32 -6 c-18 -3 -1124 -204 -2458 -447 -1334
-242 -2434 -441 -2445 -442 -11 0 -551 196 -1200 437 -649 241 -1217 451
-1262 468 l-83 30 0 1239 0 1239 3740 0 3740 0 0 -1259z"/>
<path d="M5045 4105 c-60 -21 -128 -100 -157 -182 l-23 -68 0 -810 c0 -907 -3
-867 72 -955 44 -51 85 -70 150 -70 96 1 183 66 235 175 40 87 48 149 48 392
l0 212 -37 -5 c-21 -3 -53 -7 -70 -10 l-33 -5 0 -227 c0 -201 -3 -232 -19
-269 -20 -43 -62 -73 -101 -73 -12 0 -35 13 -51 29 l-29 30 2 801 3 802 33 29
c37 33 76 37 111 13 45 -32 51 -67 51 -307 l0 -224 58 4 c31 3 63 6 70 9 11 3
13 50 10 247 -4 221 -6 247 -26 298 -57 143 -173 208 -297 164z"/>
<path d="M747 4094 c-4 -4 -7 -226 -7 -493 0 -516 4 -564 50 -668 71 -162 268
-311 482 -365 203 -51 331 19 372 202 14 59 16 164 16 699 l0 631 -195 0 -195
0 0 -563 c0 -425 -3 -566 -12 -575 -19 -19 -63 -14 -84 9 -18 20 -19 48 -24
573 l-5 551 -196 3 c-107 1 -198 -1 -202 -4z"/>
<path d="M1757 4093 c-4 -3 -7 -376 -7 -829 l0 -822 83 -28 c45 -15 124 -42
176 -60 52 -19 96 -34 98 -34 2 0 3 181 4 403 l1 402 18 -60 c10 -33 59 -204
109 -380 51 -176 101 -350 112 -387 l19 -66 153 -52 c83 -28 158 -54 165 -57
9 -4 12 197 12 986 l0 991 -175 0 -175 0 -2 -407 -3 -408 -18 60 c-79 264
-221 723 -229 738 -8 15 -27 17 -172 17 -89 0 -166 -3 -169 -7z"/>
<path d="M2887 4093 c-4 -3 -7 -559 -7 -1235 l0 -1228 23 5 c12 3 42 9 67 13
l45 8 5 844 c3 465 8 825 12 800 4 -25 19 -175 33 -335 28 -319 89 -1000 105
-1164 5 -57 12 -106 14 -108 8 -8 138 20 141 31 2 6 22 229 45 496 22 267 43
499 45 515 2 17 14 157 26 313 13 156 25 279 27 274 1 -5 4 -362 5 -793 l2
-784 25 3 c14 1 49 7 78 13 l52 10 0 1165 0 1164 -109 0 c-61 0 -112 -4 -115
-8 -2 -4 -35 -409 -73 -899 -37 -490 -70 -889 -73 -886 -3 2 -15 134 -27 291
-66 876 -114 1478 -118 1490 -3 8 -35 12 -113 12 -60 0 -112 -3 -115 -7z"/>
<path d="M3926 4068 c-3 -18 -10 -89 -16 -158 -43 -513 -107 -1250 -141 -1643
-22 -258 -38 -471 -36 -474 6 -5 129 17 139 26 3 3 14 107 23 231 10 124 19
226 20 228 2 2 40 9 85 16 60 10 83 10 85 2 2 -6 9 -105 15 -221 7 -115 13
-212 15 -213 4 -4 157 27 163 33 2 2 -5 113 -17 247 -11 134 -52 623 -91 1088
-39 465 -73 851 -75 858 -3 8 -29 12 -84 12 l-80 0 -5 -32z m103 -850 c7 -134
14 -256 16 -273 12 -93 26 -428 19 -435 -5 -4 -38 -10 -73 -14 l-64 -6 6 43
c3 23 20 241 38 485 19 243 36 442 40 442 3 0 11 -109 18 -242z"/>
<path d="M4280 4000 l0 -100 85 0 85 0 0 -990 0 -990 23 4 c12 3 48 10 80 16
l57 11 0 974 0 974 78 3 77 3 3 98 3 97 -246 0 -245 0 0 -100z"/>
<path d="M5507 4094 c-4 -4 -7 -450 -7 -991 0 -930 1 -983 18 -982 9 0 46 6
82 13 l65 12 3 434 c1 239 6 437 10 441 4 4 46 10 95 13 l87 7 0 -431 c0 -406
1 -431 18 -426 15 4 130 26 139 26 2 0 3 425 3 945 l0 946 -77 -3 -78 -3 -3
-442 c-2 -344 -5 -443 -15 -444 -6 0 -49 -4 -94 -7 l-83 -7 -2 450 -3 450 -75
3 c-42 1 -79 0 -83 -4z"/>
<path d="M6177 4094 c-4 -4 -7 -423 -7 -931 l0 -925 28 6 c15 3 68 13 117 21
50 9 134 25 189 36 54 10 100 19 102 19 2 0 4 34 4 75 0 88 13 83 -149 55 -63
-11 -117 -18 -120 -16 -3 2 -5 159 -3 349 l3 345 37 6 c20 3 63 8 95 11 l57 6
0 76 0 75 -95 -3 -95 -4 -1 320 0 320 133 5 133 5 0 75 0 75 -211 3 c-115 1
-213 -1 -217 -4z"/>
<path d="M6730 4095 c0 -3 0 -398 0 -877 l0 -873 23 3 c68 8 290 54 320 67 80
33 133 106 156 215 9 40 12 222 9 670 l-3 615 -26 56 c-30 63 -74 101 -134
118 -39 11 -345 16 -345 6z m321 -181 l24 -26 0 -633 c0 -628 0 -634 -21 -662
-21 -29 -60 -46 -126 -56 l-38 -6 0 705 0 704 68 0 c61 0 71 -3 93 -26z"/>
<path d="M750 2521 l0 -149 28 -10 c39 -14 1088 -399 1535 -563 208 -76 380
-139 383 -139 2 0 4 69 4 153 l0 154 -387 141 c-214 77 -593 216 -843 307
-546 200 -700 255 -711 255 -5 0 -9 -67 -9 -149z"/>
</g>
</svg>
